Coordinates
version=1
nRows=10
nColumns=40
inDegrees=yes

Units are S.I. units (second, meters, Newtons, ...)
Angles are in degrees.

endheader
time	pelvis_tilt	pelvis_list	pelvis_rotation	pelvis_tx	pelvis_ty	pelvis_tz	hip_flexion_r	hip_adduction_r	hip_rotation_r	knee_angle_r	knee_angle_r_beta	ankle_angle_r	subtalar_angle_r	mtp_angle_r	hip_flexion_l	hip_adduction_l	hip_rotation_l	knee_angle_l	knee_angle_l_beta	ankle_angle_l	subtalar_angle_l	mtp_angle_l	lumbar_extension	lumbar_bending	lumbar_rotation	arm_flex_r	arm_add_r	arm_rot_r	elbow_flex_r	pro_sup_r	wrist_flex_r	wrist_dev_r	arm_flex_l	arm_add_l	arm_rot_l	elbow_flex_l	pro_sup_l	wrist_flex_l	wrist_dev_l
      0.92000000	      0.42843022	     -3.38787085	     -3.14669402	     -0.19395587	      0.88383031	     -0.98732690	     -7.88020280	      4.00808336	    -13.95521083	    -17.73543320	     -0.30954170	     14.15105795	      5.43463019	     -6.03246193	     27.06566667	      4.85342014	     10.12145730	    -24.52264428	     -0.42800088	      0.83955817	     -3.06546406	    -13.28115332	     -8.32562044	      3.69930322	      3.52688022	     17.17450324	    -14.12137437	     19.21433964	     23.95099744	     89.95437384	      0.00000000	      0.00000000	     -2.48539293	      7.39852089	     -6.95710290	     12.20838103	     89.95437384	      0.00000000	      0.00000000
      0.93000000	      0.09764891	     -3.14775909	     -3.63242934	     -0.18099982	      0.88141481	     -0.98725496	     -8.06869161	      3.53987608	    -13.40728889	    -18.45948102	     -0.32217872	     14.53211480	      5.36024492	     -6.32710842	     27.60822789	      4.72602776	     10.31011266	    -22.17320426	     -0.38699542	     -0.60826473	     -3.42583621	    -12.79214351	     -8.06477913	      3.40034477	      3.96551917	     17.84552640	    -14.48202177	     19.35841471	     25.11177606	     89.95437384	      0.00000000	      0.00000000	     -3.17674137	      7.28037258	     -7.00497868	     10.77436650	     89.95437384	      0.00000000	      0.00000000
      0.94000000	     -0.19936249	     -3.17919318	     -3.87267567	     -0.16752999	      0.87896430	     -0.98738443	     -8.45932928	      3.41939114	    -12.99891511	    -18.96123275	     -0.33093594	     14.55503240	      5.37279333	     -6.45930069	     28.33089727	      4.91275001	     10.86477208	    -20.71626487	     -0.36156703	     -1.17611364	     -3.48366614	    -12.48696666	     -7.76412749	      3.44113714	      4.06515531	     18.52781573	    -14.70539261	     19.34299057	     26.06191958	     89.95437384	      0.00000000	      0.00000000	     -4.15466574	      7.22783820	     -7.11453239	      9.82237291	     89.95437384	      0.00000000	      0.00000000
      0.95000000	     -0.43624274	     -3.26450030	     -3.91364148	     -0.15373466	      0.87665423	     -0.98779161	     -8.98894218	      3.37751799	    -12.81491371	    -19.36773312	     -0.33803071	     14.46281404	      5.28875899	     -6.45285741	     29.09691567	      5.09032509	     11.47971332	    -19.89148215	     -0.34717186	     -1.19195105	     -3.35179732	    -12.29149543	     -7.49960806	      3.55997340	      3.86054051	     19.21702986	    -14.78675540	     19.20698299	     26.89246682	     89.95437384	      0.00000000	      0.00000000	     -5.24754696	      7.19560263	     -7.20159785	      9.15666616	     89.95437384	      0.00000000	      0.00000000
      0.96000000	     -0.62340808	     -2.85189466	     -4.81341904	     -0.13984666	      0.87483753	     -0.98736475	     -9.21839096	      2.59559512	    -11.79646149	    -20.31978845	     -0.35464721	     14.34342003	      5.03977777	     -6.56740634	     29.31424590	      5.07888481	     12.89794788	    -18.81960755	     -0.32846412	     -1.56426790	     -3.22934932	    -11.89456917	     -7.29851780	      3.05229821	      4.74564609	     19.48555427	    -15.13206269	     19.05081804	     28.21531037	     89.95437384	      0.00000000	      0.00000000	     -6.05149013	      7.12543583	     -7.54421928	      8.33228739	     89.95437384	      0.00000000	      0.00000000
      0.97000000	     -0.78383216	     -2.70324273	     -5.09298149	     -0.12522162	      0.87307082	     -0.98766097	     -9.71595018	      2.21314803	    -11.34842830	    -20.90912662	     -0.36493310	     13.92957496	      4.91983215	     -6.54151411	     29.66732681	      5.00509228	     13.38703222	    -18.44605951	     -0.32194447	     -1.24970745	     -3.11233805	    -11.67331751	     -7.02269116	      2.89455672	      4.83482480	     19.81157968	    -15.23266854	     18.80284896	     29.18023188	     89.95437384	      0.00000000	      0.00000000	     -7.09981079	      7.08474762	     -7.78551188	      7.88047945	     89.95437384	      0.00000000	      0.00000000
      0.98000000	     -0.94672058	     -2.62311733	     -5.32185565	     -0.11029231	      0.87145996	     -0.98786626	    -10.22165460	      1.88939416	    -11.09403636	    -21.48570232	     -0.37499625	     13.54333262	      4.75707113	     -6.42831391	     30.04708958	      4.93741837	     13.17585715	    -18.62106371	     -0.32499887	     -1.26233587	     -3.00362689	    -11.44370271	     -6.69401679	      2.80830398	      4.83699439	     20.12359902	    -15.22800127	     18.61523765	     29.89767473	     89.95437384	      0.00000000	      0.00000000	     -8.22179929	      7.05066785	     -7.80337128	      7.75094250	     89.95437384	      0.00000000	      0.00000000
      0.99000000	     -0.78865035	     -1.79849602	     -6.16611562	     -0.09510104	      0.87072542	     -0.98769630	    -10.64156151	      0.57308474	    -10.01011610	    -22.68205193	     -0.39587649	     12.67944853	      4.29209384	     -6.40939749	     29.50171965	      4.24106708	     13.78452633	    -18.32109295	     -0.31976339	     -0.59102042	     -2.19846773	    -10.97142591	     -6.72799188	      1.80834455	      5.68596016	     19.81212594	    -15.41152207	     17.67916769	     31.50360817	     89.95437384	      0.00000000	      0.00000000	     -8.77647537	      7.08022452	     -8.88800326	      7.03043425	     89.95437384	      0.00000000	      0.00000000
      1.00000000	     -0.86792193	     -1.44913838	     -6.33432960	     -0.07962743	      0.86964408	     -0.98822587	    -10.99493585	     -0.03282822	     -9.39375835	    -23.61974268	     -0.41224228	     11.77705618	      4.06438895	     -6.22581717	     29.58691585	      3.77414773	     13.18356578	    -19.01578791	     -0.33188811	     -0.95152409	     -1.94189504	    -10.59390814	     -6.44905905	      1.41699901	      5.60575194	     19.80867199	    -15.36763847	     17.31932308	     32.34893820	     89.95437384	      0.00000000	      0.00000000	     -9.71284322	      7.08419108	     -9.11706679	      6.97975654	     89.95437384	      0.00000000	      0.00000000
      1.01000000	     -0.84068081	     -0.64978188	     -6.64684215	     -0.06368058	      0.86900619	     -0.98904328	    -11.16964434	     -1.33090699	     -9.13399305	    -24.99353384	     -0.43621946	     10.40007106	      3.67555764	     -6.32727699	     29.21387890	      2.58586958	     12.08605205	    -19.64679878	     -0.34290133	     -3.25309948	      1.79076665	     -8.77419163	     -6.16272757	      0.52830609	      5.95562552	     19.33170237	    -15.24435577	     15.84536133	     33.27175849	     89.95437384	      0.00000000	      0.00000000	    -10.43106945	      7.34417101	    -12.45470780	      6.81601990	     89.95437384	      0.00000000	      0.00000000
